<?xml version="1.0" encoding="UTF-8" standalone="no"?>
<!-- Created with Inkscape (http://www.inkscape.org/) -->

<svg
   width="256"
   height="256"
   viewBox="0 0 67.733332 67.733333"
   version="1.1"
   id="svg1"
   xml:space="preserve"
   inkscape:export-filename="skkeeper_icon.png"
   inkscape:export-xdpi="96"
   inkscape:export-ydpi="96"
   inkscape:version="1.4 (e7c3feb100, 2024-10-09)"
   sodipodi:docname="skkeeper_icon.svg"
   xmlns:inkscape="http://www.inkscape.org/namespaces/inkscape"
   xmlns:sodipodi="http://sodipodi.sourceforge.net/DTD/sodipodi-0.dtd"
   xmlns="http://www.w3.org/2000/svg"
   xmlns:svg="http://www.w3.org/2000/svg"><sodipodi:namedview
     id="namedview1"
     pagecolor="#ffffff"
     bordercolor="#000000"
     borderopacity="0.25"
     inkscape:showpageshadow="2"
     inkscape:pageopacity="0.0"
     inkscape:pagecheckerboard="0"
     inkscape:deskcolor="#d1d1d1"
     inkscape:document-units="px"
     inkscape:export-bgcolor="#ffffff00"
     inkscape:zoom="1.3315455"
     inkscape:cx="9.7630914"
     inkscape:cy="355.22633"
     inkscape:window-width="2560"
     inkscape:window-height="1531"
     inkscape:window-x="0"
     inkscape:window-y="0"
     inkscape:window-maximized="1"
     inkscape:current-layer="layer2" /><defs
     id="defs1" /><g
     inkscape:groupmode="layer"
     id="layer2"
     inkscape:label="Background"
     style="display:inline"><rect
       style="fill:#458588;fill-opacity:1;stroke-width:0.264583"
       id="rect1"
       width="67.73333"
       height="67.73333"
       x="0"
       y="0"
       ry="7.1631832" /></g><g
     inkscape:label="Key"
     inkscape:groupmode="layer"
     id="layer1"
     style="display:inline"><g
       id="g1"
       inkscape:label="Key"
       transform="matrix(0.86353479,0,0,0.86353479,4.2196189,5.1548542)"><path
         d="M 441.961,43.036 C 414.21,15.284 377.311,0 338.064,0 298.816,0 261.918,15.284 234.167,43.036 191.941,85.262 179.676,148.215 202.102,202.734 l -201.848,201.85 -0.165,80.268 144.562,0.165 v -55.722 h 55.705 V 373.59 h 55.705 v -64.492 l 26.212,-26.212 c 17.615,7.203 36.698,10.976 55.799,10.976 39.244,0 76.14,-15.282 103.889,-43.032 57.289,-57.289 57.289,-150.505 0,-207.794 z m -21.213,186.581 c -22.083,22.083 -51.445,34.245 -82.676,34.245 -18.133,0 -36.237,-4.265 -52.353,-12.333 l -9.672,-4.842 -49.986,49.985 v 46.918 h -55.705 v 55.705 h -55.705 v 55.688 l -84.5,-0.096 0.078,-37.85 208.082,-208.087 -4.842,-9.672 C 210.897,154.191 219.702,99.927 255.38,64.249 277.466,42.163 306.83,30 338.064,30 c 31.234,0 60.598,12.163 82.684,34.249 45.592,45.592 45.592,119.776 0,165.368 z"
         id="path2"
         style="fill:#ffffff;fill-opacity:1"
         transform="matrix(0.11764887,0,0,0.11764887,5.8851551,3.8205431)" /><path
         d="m 361.205,68.899 c -14.663,0 -28.447,5.71 -38.816,16.078 -21.402,21.403 -21.402,56.228 0,77.631 10.368,10.368 24.153,16.078 38.815,16.078 14.662,0 28.447,-5.71 38.816,-16.078 21.402,-21.403 21.402,-56.228 0,-77.631 C 389.652,74.609 375.867,68.899 361.205,68.899 Z m 17.602,72.495 c -4.702,4.702 -10.953,7.292 -17.603,7.292 -6.65,0 -12.901,-2.59 -17.603,-7.291 -9.706,-9.706 -9.706,-25.499 0,-35.205 4.702,-4.702 10.953,-7.291 17.603,-7.291 6.65,0 12.9,2.589 17.603,7.291 9.706,9.706 9.706,25.498 0,35.204 z"
         id="path1"
         style="fill:#ffffff;fill-opacity:1"
         transform="matrix(0.11764887,0,0,0.11764887,5.8851551,3.8205431)" /></g></g></svg>
